<?xml version="1.0" standalone="no"?>
<!DOCTYPE svg PUBLIC "-//W3C//DTD SVG 20010904//EN"
 "http://www.w3.org/TR/2001/REC-SVG-20010904/DTD/svg10.dtd">
<svg version="1.0" xmlns="http://www.w3.org/2000/svg"
 width="1024.000000pt" height="1024.000000pt" viewBox="0 0 1024.000000 1024.000000"
 preserveAspectRatio="xMidYMid meet">
<metadata>
Created by potrace 1.14, written by Peter Selinger 2001-2017
</metadata>
<g transform="translate(0.000000,1024.000000) scale(0.100000,-0.100000)"
fill="#000000" stroke="none">
<path d="M1999 10233 c0 -5 -2 -55 -4 -113 -4 -127 -30 -351 -51 -440 -20 -84
-31 -117 -70 -220 -18 -47 -40 -112 -49 -145 -10 -33 -21 -68 -26 -77 -5 -9
-12 -36 -15 -60 -4 -24 -10 -47 -14 -53 -5 -5 -11 -40 -15 -78 -4 -37 -11 -70
-16 -73 -5 -3 -9 -22 -9 -42 -1 -20 -7 -48 -15 -62 -8 -14 -14 -41 -15 -62 0
-20 -5 -38 -10 -40 -6 -2 -13 -33 -17 -71 -3 -37 -9 -67 -13 -67 -4 0 -16 -42
-25 -92 -10 -51 -21 -95 -25 -98 -4 -3 -10 -23 -13 -45 -5 -44 -21 -132 -66
-370 -17 -88 -46 -254 -66 -370 -20 -115 -40 -219 -44 -230 -5 -11 -19 -63
-31 -115 -12 -52 -33 -135 -46 -185 -13 -49 -42 -164 -64 -255 -47 -195 -96
-305 -168 -376 -36 -36 -85 -66 -210 -126 -186 -90 -301 -158 -375 -220 -48
-40 -88 -68 -158 -110 -46 -28 -121 -51 -214 -63 -79 -11 -100 -14 -127 -14
l-28 -1 0 -539 0 -539 28 -6 c15 -2 50 -7 77 -11 28 -3 73 -12 100 -20 28 -8
52 -14 55 -13 12 3 130 -69 198 -121 140 -105 132 -100 327 -222 187 -117 282
-206 307 -289 21 -66 26 -85 32 -125 3 -16 10 -55 16 -85 13 -70 14 -319 0
-402 -28 -178 -70 -246 -230 -373 -170 -135 -223 -209 -393 -553 -130 -262
-143 -284 -215 -370 -41 -49 -120 -112 -145 -116 -7 -1 -18 -6 -26 -10 -8 -5
-39 -17 -70 -26 l-56 -18 -3 -633 c-1 -457 1 -635 9 -640 6 -3 31 -7 55 -7 25
-1 48 -4 53 -6 4 -3 23 -8 42 -11 95 -16 208 -75 286 -150 90 -86 203 -268
217 -347 2 -15 7 -31 9 -35 8 -13 34 -218 37 -285 0 -5 1757 -8 3905 -8 l3905
0 1 73 c1 39 1 75 1 78 -1 8 16 167 24 223 3 21 9 49 14 62 5 13 8 24 6 24
-12 0 61 176 103 249 83 145 99 180 126 269 14 48 30 101 34 117 10 33 28 144
35 215 7 66 24 258 36 390 5 63 14 201 20 305 6 105 12 224 15 265 13 205 60
1253 75 1655 19 520 23 1031 17 1910 -1 166 9 227 54 315 40 79 117 150 244
221 204 115 282 181 370 315 123 187 193 225 460 248 28 3 58 5 68 5 16 1 17
59 17 1071 l0 1070 -27 1 c-63 1 -163 11 -233 24 -142 26 -197 64 -315 220
-146 192 -262 279 -471 350 -76 26 -159 58 -183 71 -24 13 -47 22 -51 19 -22
-13 -136 122 -128 152 1 5 -1 26 -5 48 -15 89 -19 133 -21 202 l-1 73 -3402 0
c-1872 0 -3403 -3 -3404 -7z m1271 -523 c187 -18 643 -39 1039 -50 1084 -28
1149 -29 1881 -35 366 -3 739 -7 830 -9 91 -3 311 -8 490 -11 179 -3 366 -11
415 -16 120 -13 215 -31 210 -39 -2 -4 20 -12 50 -19 31 -7 53 -16 50 -21 -3
-5 8 -11 25 -15 16 -4 30 -11 30 -15 0 -5 6 -7 14 -4 8 3 17 1 20 -5 3 -5 44
-28 91 -51 81 -40 106 -56 68 -44 -10 3 6 -9 35 -26 53 -32 65 -44 35 -33 -10
3 12 -16 50 -42 37 -26 67 -52 67 -57 0 -5 5 -6 10 -3 6 3 10 2 10 -2 0 -5 55
-48 123 -96 67 -48 165 -119 217 -158 90 -65 236 -159 248 -159 4 0 26 -19 51
-42 24 -24 40 -37 36 -29 -17 30 12 1 45 -45 18 -26 29 -44 23 -41 -7 4 20
-46 58 -111 171 -291 220 -487 168 -673 -11 -41 -22 -84 -24 -97 -5 -35 -112
-250 -151 -305 -19 -27 -30 -45 -22 -41 7 4 0 -8 -17 -28 -16 -20 -34 -37 -38
-37 -4 -1 -20 -10 -35 -21 -31 -23 -112 -38 -112 -21 0 6 -6 11 -14 11 -21 0
-107 75 -137 120 -40 59 -74 170 -114 370 -19 96 -45 203 -57 237 -29 84 -81
149 -148 187 -140 79 -337 6 -421 -156 -46 -90 -53 -155 -51 -458 1 -157 -5
-424 -13 -595 -8 -170 -15 -445 -15 -610 0 -293 -24 -1220 -35 -1340 -2 -33
-9 -152 -15 -265 -6 -113 -15 -266 -20 -340 -6 -74 -12 -182 -15 -240 -3 -58
-15 -181 -26 -275 -11 -93 -22 -195 -24 -225 -3 -30 -12 -102 -20 -160 -8 -58
-17 -121 -19 -140 -20 -164 -80 -491 -96 -525 -5 -11 -23 -63 -40 -115 -17
-52 -35 -99 -39 -105 -34 -42 -153 -417 -175 -550 -26 -157 -62 -546 -71 -761
-6 -166 -17 -234 -50 -329 -61 -171 -201 -271 -406 -290 -48 -4 -153 -1 -284
10 -189 16 -229 17 -419 4 -286 -19 -765 -18 -1331 4 -258 9 -596 22 -750 27
-540 20 -1077 55 -1500 101 -180 19 -492 69 -635 102 -70 16 -180 31 -358 47
-297 28 -440 83 -563 218 -67 73 -110 164 -116 246 -5 54 -2 72 20 120 51 110
183 204 347 245 215 54 607 77 1035 62 171 -6 499 -16 730 -21 231 -6 728 -22
1105 -36 377 -14 861 -27 1075 -29 317 -3 405 -6 469 -20 152 -32 257 -103
366 -249 113 -151 209 -216 318 -216 106 0 213 72 271 180 42 79 86 255 101
406 26 257 -31 431 -192 579 -177 164 -348 190 -1433 215 -689 16 -954 33
-1300 85 -88 13 -230 29 -315 34 -332 23 -393 35 -455 94 -68 66 -75 110 -50
329 7 69 17 272 21 450 9 427 -4 527 -91 705 -56 114 -118 178 -280 293 -82
58 -164 130 -260 226 l-140 140 -160 79 c-228 113 -262 136 -287 192 -27 62
-20 122 19 171 18 23 82 68 164 117 170 102 248 177 346 336 40 63 94 135 120
160 27 25 103 73 173 109 199 104 287 202 326 366 34 142 12 459 -46 654 -38
129 -135 243 -254 300 -34 15 -117 45 -186 65 -178 53 -314 127 -397 217 -104
114 -143 285 -124 539 6 74 15 204 21 289 24 354 48 516 96 636 13 33 24 65
24 70 0 16 57 94 107 148 31 32 79 67 123 91 88 45 116 54 195 61 33 4 62 8
64 10 8 8 216 3 321 -6z m-873 -6605 c134 -39 262 -132 284 -205 19 -64 4
-108 -54 -163 -102 -95 -266 -150 -387 -129 -163 29 -312 166 -297 273 8 58
51 124 110 167 107 78 211 96 344 57z"/>
<path d="M4351 7704 c-173 -17 -233 -30 -308 -65 -136 -64 -255 -264 -278
-464 -3 -33 -10 -82 -16 -110 -49 -266 -19 -521 80 -671 46 -70 116 -139 227
-222 112 -84 149 -129 270 -332 58 -97 123 -199 146 -226 50 -60 68 -101 68
-154 0 -54 -28 -110 -119 -239 -42 -60 -108 -158 -146 -220 -89 -143 -133
-192 -258 -289 -166 -129 -235 -213 -290 -352 -55 -140 -62 -205 -61 -565 1
-323 2 -332 28 -430 63 -240 162 -359 341 -410 50 -15 83 -17 220 -11 88 4
230 16 315 27 391 49 519 120 730 404 139 186 155 200 350 301 129 67 229 165
290 284 130 255 179 291 503 365 296 68 491 196 587 385 46 91 108 266 129
363 67 310 51 576 -51 886 -71 213 -148 301 -373 422 -68 37 -195 76 -459 140
-205 50 -290 106 -393 259 -111 165 -186 234 -368 335 -191 106 -226 136 -328
280 -39 55 -97 126 -129 157 -65 64 -170 120 -258 137 -51 10 -282 32 -305 30
-5 -1 -70 -7 -144 -15z"/>
</g>
</svg>
